<?xml version="1.0" encoding="UTF-8" standalone="no"?>
<!DOCTYPE svg PUBLIC "-//W3C//DTD SVG 1.1//EN" "http://www.w3.org/Graphics/SVG/1.1/DTD/svg11.dtd">
<svg width="100%" height="100%" viewBox="0 0 226 367" version="1.1" xmlns="http://www.w3.org/2000/svg" xmlns:xlink="http://www.w3.org/1999/xlink" xml:space="preserve" xmlns:serif="http://www.serif.com/" style="fill-rule:evenodd;clip-rule:evenodd;stroke-linejoin:round;stroke-miterlimit:2;">
    <g transform="matrix(1,0,0,1,-263.947,-110.16)">
        <g transform="matrix(1,0,0,1,65.8287,-111.904)">
            <g transform="matrix(7.23302,2.29206e-15,2.29206e-15,6.42935,-2079.56,-4843.01)">
                <path d="M316.628,843.888L316.628,821.844L316.643,807.238C316.643,801.454 317.758,797.064 320.072,794.094C322.354,791.165 325.818,789.748 330.43,789.748C334.815,789.748 338.235,791.118 340.666,793.926C343.118,796.759 344.292,801.208 344.292,807.238C344.292,807.238 344.292,820.871 344.292,820.871C344.292,820.871 324.325,820.871 319.894,820.871C319.894,820.871 319.894,818.17 319.894,818.17L319.905,806.809C319.905,802.375 320.751,799.006 322.525,796.729C324.267,794.492 326.915,793.422 330.436,793.422C333.787,793.422 336.403,794.461 338.26,796.607C340.139,798.777 341.026,802.19 341.026,806.809L341.026,818.169C341.026,818.706 341.414,819.141 341.89,819.141C342.367,819.141 342.755,818.706 342.755,818.169L342.755,806.809C342.755,801.558 341.634,797.717 339.498,795.25C337.341,792.758 334.328,791.478 330.436,791.478C326.321,791.478 323.262,792.833 321.225,795.447C319.221,798.02 318.177,801.798 318.177,806.808L318.165,818.169L318.165,821.843C318.165,822.38 318.552,822.815 319.029,822.815L345.156,822.815C345.634,822.815 346.02,822.38 346.02,821.843L346.02,807.238C346.02,800.577 344.613,795.7 341.904,792.57C339.173,789.416 335.356,787.804 330.43,787.804C325.224,787.804 321.349,789.506 318.773,792.812C316.228,796.078 314.915,800.877 314.915,807.237L314.899,821.843L314.899,843.888C314.899,844.424 315.287,844.86 315.764,844.86C316.24,844.86 316.628,844.424 316.628,843.888Z" style="fill:rgb(37,37,37);"/>
            </g>
            <g transform="matrix(3.90523e-16,-5.8965,-6.13711,-3.46323e-16,5271.31,2270.95)">
                <path d="M315.764,821.843" style="fill:none;stroke:rgb(37,37,37);stroke-width:0.71px;"/>
            </g>
            <g transform="matrix(0.581908,0,0,0.581908,15.1561,-626.92)">
                <path d="M444.543,1920.47L497.876,2052.2C499.518,2056.26 503.457,2058.91 507.832,2058.91C512.208,2058.91 516.146,2056.26 517.788,2052.2L571.121,1920.47C573.345,1914.97 570.691,1908.71 565.196,1906.48C559.701,1904.26 553.434,1906.91 551.21,1912.41L507.832,2019.55C507.832,2019.55 464.454,1912.41 464.454,1912.41C462.23,1906.91 455.963,1904.26 450.468,1906.48C444.973,1908.71 442.319,1914.97 444.543,1920.47Z" style="fill:rgb(37,37,37);"/>
            </g>
        </g>
    </g>
</svg>
