<?xml version="1.0" encoding="UTF-8" standalone="no"?>
<!DOCTYPE svg PUBLIC "-//W3C//DTD SVG 1.1//EN" "http://www.w3.org/Graphics/SVG/1.1/DTD/svg11.dtd">
<svg width="100%" height="100%" viewBox="0 0 580 525" version="1.1" xmlns="http://www.w3.org/2000/svg" xmlns:xlink="http://www.w3.org/1999/xlink" xml:space="preserve" xmlns:serif="http://www.serif.com/" style="fill-rule:evenodd;clip-rule:evenodd;">
    <g transform="matrix(1,0,0,1,20,10)">
        <path id="d" d="M260,4C260,1.792 258.208,0 256,0L4,0C1.792,0 0,1.792 0,4L0,231C0,233.208 1.792,235 4,235L256,235C258.208,235 260,233.208 260,231L260,4Z" style="fill:white;"/>
        <rect x="16.208" y="16.207" width="230.286" height="202.586" style="fill:rgb(250,250,250);stroke:rgb(229,233,234);stroke-width:1px;"/>
        <path d="M16.208,117.5L246.494,117.5L246.494,118.5L16.208,118.5L16.208,117.5ZM16.208,136.493L246.494,136.493L246.494,137.493L16.208,137.493L16.208,136.493ZM16.208,155.485L246.494,155.485L246.494,156.485L16.208,156.485L16.208,155.485ZM16.208,174.477L246.494,174.477L246.494,175.477L16.208,175.477L16.208,174.477ZM16.208,41.53L246.494,41.53L246.494,42.53L16.208,42.53L16.208,41.53ZM16.208,22.538L246.494,22.538L246.494,23.538L16.208,23.538L16.208,22.538ZM16.208,60.523L246.494,60.523L246.494,61.523L16.208,61.523L16.208,60.523ZM16.208,79.515L246.494,79.515L246.494,80.515L16.208,80.515L16.208,79.515ZM16.208,98.508L246.494,98.508L246.494,99.508L16.208,99.508L16.208,98.508ZM16.208,193.47L246.494,193.47L246.494,194.47L16.208,194.47L16.208,193.47ZM16.208,212.462L246.494,212.462L246.494,213.462L16.208,213.462L16.208,212.462Z" style="fill:rgb(229,233,234);"/>
        <path d="M22.286,117.5L53.351,117.5L53.351,163.147C53.351,165.89 51.094,168.147 48.351,168.147L27.286,168.147C24.543,168.147 22.286,165.89 22.286,163.147L22.286,117.5Z" style="fill:rgb(36,45,82);"/>
        <path d="M22.286,117.5L53.351,117.5L53.351,150.485C53.351,153.228 51.094,155.485 48.351,155.485L27.286,155.485C24.543,155.485 22.286,153.228 22.286,150.485L22.286,117.5ZM69.558,117.234L100.623,117.234L100.623,82.658C100.623,79.915 98.366,77.658 95.623,77.658L74.558,77.658C71.815,77.658 69.558,79.915 69.558,82.658L69.558,117.234Z" style="fill:rgb(243,96,60);"/>
        <path d="M69.558,117.234L100.623,117.234L100.623,169.224C100.623,171.967 98.366,174.224 95.623,174.224L74.558,174.224C71.815,174.224 69.558,171.967 69.558,169.224L69.558,117.234ZM162.078,117.5L193.143,117.5L193.143,46.193C193.143,43.45 190.886,41.193 188.143,41.193L167.078,41.193C164.335,41.193 162.078,43.45 162.078,46.193L162.078,117.5Z" style="fill:rgb(36,45,82);"/>
        <path d="M162.078,117.5L193.143,117.5L193.143,65.27C193.143,62.527 190.886,60.27 188.143,60.27L167.078,60.27C164.335,60.27 162.078,62.527 162.078,65.27L162.078,117.5Z" style="fill:rgb(243,96,60);"/>
        <g>
            <path d="M209.35,117.5L240.416,117.5L240.416,175.977C240.416,178.72 238.159,180.977 235.416,180.977L214.35,180.977C211.607,180.977 209.35,178.72 209.35,175.977L209.35,117.5Z" style="fill:rgb(36,45,82);"/>
            <path d="M209.35,117.5L240.416,117.5L240.416,163.282C240.416,166.025 238.159,168.282 235.416,168.282L214.35,168.282C211.607,168.282 209.35,166.025 209.35,163.282L209.35,117.5Z" style="fill:rgb(243,96,60);"/>
        </g>
        <g>
            <path d="M115.48,117.5L146.546,117.5L146.546,207.716C146.546,210.459 144.289,212.716 141.546,212.716L120.48,212.716C117.737,212.716 115.48,210.459 115.48,207.716L115.48,117.5Z" style="fill:rgb(243,96,60);"/>
            <path d="M115.48,117.5L146.546,117.5L146.546,150.586C146.546,153.329 144.289,155.586 141.546,155.586L120.48,155.586C117.737,155.586 115.48,153.329 115.48,150.586L115.48,117.5Z" style="fill:rgb(36,45,82);"/>
        </g>
        <g transform="matrix(1,0,0,1,280,0)">
            <path id="f" d="M260,4C260,1.792 258.208,0 256,0L4,0C1.792,0 0,1.792 0,4L0,231C0,233.208 1.792,235 4,235L256,235C258.208,235 260,233.208 260,231L260,4Z" style="fill:white;"/>
            <g transform="matrix(1,0,0,1,49.299,36.466)">
                <g transform="matrix(0.798174,0.00608179,-0.00608179,0.798174,16.8486,15.8619)">
                    <ellipse cx="81.039" cy="81.034" rx="61.039" ry="61.034" style="fill:none;stroke:white;stroke-width:40px;"/>
                </g>
                <g id="a" transform="matrix(-0.280523,0.747279,-0.747279,-0.280523,164.327,43.2072)">
                    <ellipse cx="81.039" cy="81.034" rx="81.039" ry="81.034" style="fill:none;stroke:rgb(243,96,60);stroke-width:52.62px;stroke-dasharray:526.19,210.47,0,0;stroke-dashoffset:52.62;"/>
                </g>
                <g id="b" transform="matrix(0.0147308,0.798061,-0.798061,0.0147308,144.515,15.1662)">
                    <ellipse cx="81.039" cy="81.034" rx="81.039" ry="81.034" style="fill:none;stroke:rgb(36,45,82);stroke-width:52.62px;stroke-miterlimit:1;stroke-dasharray:315.71,210.47,0,0;"/>
                </g>
            </g>
        </g>
        <g transform="matrix(1,0,0,1,140,250)">
            <path id="j" d="M260,4C260,1.792 258.208,0 256,0L4,0C1.792,0 0,1.792 0,4L0,231C0,233.208 1.792,235 4,235L256,235C258.208,235 260,233.208 260,231L260,4Z" style="fill:white;"/>
            <g transform="matrix(1,0,0,1,16.208,140.46)">
                <path d="M106.026,4C106.026,1.792 104.234,0 102.026,0L4,0C1.792,0 0,1.792 0,4L0,74.333C0,76.541 1.792,78.333 4,78.333L102.026,78.333C104.234,78.333 106.026,76.541 106.026,74.333L106.026,4Z" style="fill:rgb(243,96,60);"/>
                <path d="M23.044,59.413L23.044,55.506L26.941,55.506L26.941,53.726L23.044,53.726L23.044,49.818L21.263,49.818L21.263,53.725L17.355,53.725L17.355,55.505L21.263,55.505L21.263,59.413L23.044,59.413ZM35.308,61.451L35.308,47.345L33.15,47.345L29.717,50.342L29.717,52.716L33.031,49.739L33.031,61.45L35.307,61.45L35.308,61.451ZM41.745,61.649C42.127,61.649 42.455,61.514 42.729,61.243C43.003,60.973 43.139,60.646 43.139,60.263C43.139,59.881 43.003,59.553 42.729,59.28C42.472,59.014 42.115,58.865 41.745,58.87C41.369,58.87 41.043,59.006 40.765,59.28C40.496,59.536 40.345,59.893 40.35,60.264C40.35,60.64 40.489,60.964 40.766,61.238C41.043,61.512 41.369,61.648 41.745,61.648L41.745,61.649ZM50.329,61.639C51.779,61.639 52.952,61.195 53.846,60.309C54.739,59.421 55.186,58.256 55.186,56.812C55.186,55.374 54.748,54.268 53.87,53.492C52.993,52.718 51.671,52.331 49.904,52.331L48.36,52.331L48.667,49.413L54.543,49.413L54.543,47.355L46.68,47.355L45.948,54.269L49.578,54.269C51.788,54.269 52.892,55.143 52.892,56.891C52.892,57.682 52.66,58.321 52.195,58.805C51.73,59.29 51.092,59.532 50.28,59.532C49.575,59.532 48.973,59.327 48.475,58.919C47.977,58.509 47.728,57.896 47.728,57.079C47.728,56.914 47.751,56.676 47.798,56.367L45.512,56.505C45.479,56.789 45.462,57.026 45.462,57.217C45.462,58.134 45.69,58.933 46.145,59.616C46.58,60.281 47.194,60.809 47.916,61.139C48.642,61.472 49.446,61.639 50.33,61.639L50.329,61.639ZM59.536,53.349C60.359,53.363 61.152,53.033 61.722,52.439C62.322,51.826 62.622,51.091 62.622,50.234C62.622,49.383 62.322,48.654 61.722,48.047C61.152,47.453 60.359,47.123 59.536,47.137C58.686,47.137 57.956,47.441 57.35,48.047C56.758,48.619 56.428,49.411 56.44,50.234C56.44,51.097 56.742,51.833 57.345,52.439C57.948,53.046 58.679,53.349 59.536,53.349ZM60.624,61.461L68.084,47.325L66.104,47.325L58.666,61.461L60.624,61.461ZM59.536,51.777C59.114,51.777 58.751,51.627 58.448,51.327C58.151,51.042 57.986,50.646 57.993,50.234C57.993,49.804 58.145,49.444 58.448,49.15C58.736,48.863 59.129,48.704 59.536,48.71C59.965,48.71 60.328,48.859 60.624,49.155C60.921,49.452 61.069,49.811 61.069,50.234C61.069,50.662 60.923,51.027 60.629,51.327C60.336,51.627 59.971,51.777 59.536,51.777ZM67.321,61.619C68.172,61.619 68.896,61.316 69.493,60.709C70.077,60.133 70.4,59.343 70.388,58.523C70.388,57.666 70.088,56.935 69.488,56.332C68.923,55.743 68.137,55.415 67.321,55.427C66.464,55.427 65.732,55.728 65.125,56.332C64.531,56.904 64.202,57.698 64.215,58.523C64.215,59.38 64.517,60.111 65.12,60.714C65.724,61.317 66.458,61.619 67.321,61.619ZM67.321,60.056C66.886,60.056 66.521,59.906 66.223,59.606C65.933,59.321 65.772,58.93 65.778,58.523C65.778,58.088 65.927,57.722 66.223,57.425C66.512,57.132 66.909,56.97 67.321,56.98C67.737,56.98 68.098,57.131 68.405,57.435C68.711,57.738 68.865,58.101 68.865,58.523C68.865,58.945 68.713,59.306 68.41,59.606C68.106,59.906 67.744,60.056 67.321,60.056Z" style="fill:white;fill-rule:nonzero;"/>
            </g>
            <g transform="matrix(1,0,0,1,137.766,140.46)">
                <path d="M106.026,4C106.026,1.792 104.234,0 102.026,0L4,0C1.792,0 0,1.792 0,4L0,74.333C0,76.541 1.792,78.333 4,78.333L102.026,78.333C104.234,78.333 106.026,76.541 106.026,74.333L106.026,4Z" style="fill:rgb(250,250,250);"/>
                <path d="M22.104,61.639C23.04,61.639 23.881,61.471 24.626,61.134C25.348,60.811 25.964,60.29 26.402,59.631C26.841,58.971 27.06,58.21 27.06,57.346C27.06,56.496 26.842,55.753 26.407,55.12C25.965,54.481 25.351,53.981 24.637,53.676C25.164,53.366 25.579,52.962 25.883,52.464C26.188,51.962 26.345,51.384 26.338,50.797C26.338,49.729 25.938,48.854 25.136,48.171C24.335,47.489 23.324,47.147 22.104,47.147C20.864,47.147 19.842,47.487 19.037,48.167C18.233,48.845 17.83,49.722 17.83,50.797C17.83,51.411 17.985,51.967 18.295,52.464C18.605,52.962 19.031,53.366 19.571,53.676C18.813,53.999 18.218,54.477 17.786,55.11C17.354,55.743 17.138,56.489 17.138,57.346C17.138,58.21 17.358,58.971 17.796,59.631C18.234,60.29 18.852,60.81 19.576,61.129C20.325,61.469 21.167,61.639 22.104,61.639ZM22.104,52.974C21.497,52.974 20.986,52.777 20.571,52.385C20.163,52.011 19.936,51.479 19.947,50.926C19.947,50.359 20.155,49.882 20.571,49.496C20.986,49.111 21.497,48.918 22.104,48.918C22.704,48.918 23.212,49.111 23.627,49.497C24.043,49.882 24.251,50.359 24.251,50.926C24.251,51.5 24.041,51.984 23.622,52.38C23.215,52.771 22.669,52.985 22.104,52.974ZM22.104,59.581C21.332,59.581 20.693,59.354 20.184,58.899C19.677,58.444 19.423,57.837 19.423,57.079C19.423,56.334 19.677,55.737 20.185,55.289C20.693,54.839 21.332,54.616 22.104,54.616C22.862,54.616 23.495,54.84 24.004,55.288C24.511,55.737 24.765,56.334 24.765,57.078C24.765,57.831 24.511,58.436 24.003,58.894C23.495,59.352 22.863,59.581 22.103,59.581L22.104,59.581ZM33.18,61.64C34.116,61.64 34.957,61.472 35.702,61.135C36.424,60.812 37.04,60.291 37.478,59.632C37.917,58.972 38.136,58.211 38.136,57.347C38.136,56.497 37.918,55.754 37.483,55.121C37.041,54.482 36.427,53.982 35.713,53.677C36.24,53.367 36.655,52.963 36.959,52.465C37.264,51.963 37.421,51.385 37.414,50.798C37.414,49.73 37.014,48.855 36.212,48.172C35.411,47.49 34.4,47.148 33.18,47.148C31.94,47.148 30.918,47.488 30.113,48.168C29.309,48.846 28.906,49.723 28.906,50.798C28.906,51.412 29.061,51.968 29.371,52.465C29.681,52.963 30.107,53.367 30.647,53.677C29.889,54 29.294,54.478 28.862,55.111C28.43,55.744 28.214,56.49 28.214,57.347C28.214,58.211 28.434,58.972 28.872,59.632C29.31,60.291 29.928,60.811 30.652,61.13C31.401,61.47 32.243,61.64 33.18,61.64ZM33.18,52.975C32.573,52.975 32.062,52.778 31.646,52.386C31.239,52.012 31.011,51.48 31.023,50.927C31.023,50.36 31.231,49.883 31.646,49.497C32.062,49.112 32.573,48.919 33.18,48.919C33.78,48.919 34.288,49.112 34.703,49.498C35.119,49.883 35.326,50.36 35.326,50.927C35.326,51.501 35.117,51.985 34.698,52.381C34.291,52.772 33.745,52.986 33.18,52.975ZM33.18,59.582C32.408,59.582 31.768,59.355 31.26,58.9C30.753,58.445 30.499,57.838 30.499,57.08C30.499,56.335 30.753,55.738 31.261,55.29C31.768,54.84 32.408,54.617 33.18,54.617C33.938,54.617 34.571,54.841 35.08,55.289C35.587,55.738 35.84,56.335 35.84,57.079C35.84,57.832 35.587,58.437 35.08,58.895C34.571,59.353 33.938,59.582 33.18,59.582ZM41.615,61.65C41.998,61.65 42.326,61.515 42.6,61.244C42.873,60.974 43.01,60.647 43.01,60.264C43.01,59.882 42.873,59.554 42.6,59.281C42.342,59.014 41.986,58.866 41.615,58.871C41.24,58.871 40.913,59.007 40.636,59.281C40.367,59.537 40.216,59.894 40.221,60.265C40.221,60.641 40.359,60.965 40.636,61.239C40.913,61.513 41.24,61.649 41.616,61.649L41.615,61.65ZM54.928,61.452L54.928,59.394L48.418,59.394L52.564,55.101C53.23,54.409 53.718,53.759 54.028,53.153C54.338,52.546 54.493,51.883 54.493,51.164C54.493,49.911 54.074,48.926 53.236,48.207C52.399,47.487 51.321,47.128 50.002,47.128C48.597,47.128 47.482,47.521 46.658,48.306C45.834,49.09 45.421,50.215 45.421,51.679L45.421,52.47L47.687,52.688L47.687,51.649C47.687,50.732 47.894,50.065 48.31,49.646C48.725,49.227 49.293,49.018 50.011,49.018C50.697,49.018 51.241,49.208 51.644,49.587C52.046,49.966 52.247,50.495 52.247,51.174C52.247,52.051 51.776,52.974 50.833,53.944L45.193,59.731L45.193,61.452L54.928,61.452ZM64.63,61.452L64.63,58.692L66.569,58.692L66.569,56.644L64.629,56.644L64.629,47.346L61.16,47.346L55.729,56.635L55.729,58.692L62.357,58.692L62.357,61.452L64.632,61.452L64.63,61.452ZM62.355,56.644L57.943,56.644L62.355,48.81L62.355,56.644ZM70.484,53.35C71.307,53.364 72.1,53.034 72.67,52.44C73.27,51.827 73.57,51.092 73.57,50.235C73.57,49.384 73.27,48.655 72.67,48.048C72.1,47.454 71.307,47.124 70.484,47.138C69.633,47.138 68.904,47.442 68.297,48.048C67.705,48.62 67.375,49.412 67.387,50.235C67.387,51.098 67.689,51.834 68.292,52.44C68.896,53.047 69.626,53.35 70.484,53.35ZM71.572,61.462L79.031,47.326L77.052,47.326L69.613,61.462L71.572,61.462ZM70.484,51.778C70.062,51.778 69.699,51.628 69.395,51.328C69.098,51.043 68.933,50.647 68.94,50.235C68.94,49.805 69.092,49.445 69.395,49.151C69.684,48.863 70.077,48.705 70.484,48.711C70.912,48.711 71.275,48.86 71.572,49.156C71.869,49.453 72.017,49.812 72.017,50.235C72.017,50.663 71.87,51.028 71.577,51.328C71.283,51.628 70.919,51.778 70.484,51.778ZM78.269,61.62C79.119,61.62 79.843,61.317 80.44,60.71C81.024,60.134 81.348,59.344 81.336,58.524C81.336,57.667 81.036,56.936 80.436,56.333C79.871,55.744 79.085,55.416 78.269,55.428C77.412,55.428 76.679,55.729 76.073,56.333C75.479,56.905 75.15,57.699 75.163,58.524C75.163,59.381 75.464,60.112 76.068,60.715C76.671,61.318 77.405,61.62 78.268,61.62L78.269,61.62ZM78.269,60.057C77.834,60.057 77.468,59.907 77.171,59.607C76.881,59.322 76.72,58.931 76.726,58.524C76.726,58.089 76.874,57.723 77.171,57.426C77.46,57.133 77.857,56.971 78.269,56.981C78.684,56.981 79.045,57.132 79.352,57.436C79.659,57.739 79.812,58.102 79.812,58.524C79.812,58.946 79.66,59.307 79.357,59.607C79.054,59.907 78.691,60.057 78.269,60.057Z" style="fill:rgb(30,39,46);fill-rule:nonzero;"/>
            </g>
            <g transform="matrix(1,0,0,1,16.208,16.207)">
                <path d="M227.584,4C227.584,1.792 225.792,0 223.584,0L4,0C1.792,0 0,1.792 0,4L0,104.046C0,106.254 1.792,108.046 4,108.046L223.584,108.046C225.792,108.046 227.584,106.254 227.584,104.046L227.584,4Z" style="fill:rgb(250,250,250);"/>
                <path d="M28.786,84.812C30.784,84.812 32.577,84.453 34.167,83.736C35.757,83.004 37.02,81.935 37.955,80.528C38.891,79.121 39.359,77.496 39.359,75.653C39.359,73.838 38.894,72.256 37.966,70.905C37.037,69.555 35.778,68.528 34.188,67.825C35.314,67.163 36.2,66.301 36.848,65.239C37.495,64.177 37.818,62.992 37.818,61.683C37.818,59.404 36.963,57.537 35.254,56.081C33.544,54.624 31.389,53.896 28.786,53.896C26.141,53.896 23.96,54.621 22.244,56.07C20.527,57.519 19.669,59.39 19.669,61.683C19.669,62.992 19.999,64.177 20.661,65.239C21.322,66.301 22.229,67.163 23.383,67.824C21.765,68.514 20.495,69.534 19.573,70.884C18.653,72.234 18.192,73.824 18.192,75.654C18.192,77.496 18.659,79.121 19.595,80.528C20.531,81.935 21.797,83.001 23.394,83.725C24.991,84.45 26.788,84.812 28.786,84.812ZM28.786,66.326C27.491,66.326 26.401,65.907 25.515,65.07C24.628,64.233 24.185,63.196 24.185,61.958C24.185,60.748 24.628,59.731 25.515,58.908C26.401,58.085 27.491,57.674 28.785,57.674C30.066,57.674 31.149,58.085 32.035,58.908C32.922,59.731 33.365,60.748 33.365,61.958C33.365,63.182 32.919,64.216 32.025,65.06C31.132,65.904 30.052,66.326 28.785,66.326L28.786,66.326ZM28.786,80.423C27.14,80.423 25.775,79.937 24.692,78.966C23.608,77.996 23.067,76.701 23.067,75.084C23.067,73.494 23.608,72.221 24.692,71.264C25.775,70.307 27.14,69.829 28.786,69.829C30.404,69.829 31.754,70.307 32.838,71.264C33.921,72.221 34.463,73.494 34.463,75.084C34.463,76.687 33.921,77.978 32.838,78.956C31.754,79.934 30.404,80.423 28.786,80.423ZM50.523,84.411L60.252,71.538C62.024,69.147 62.911,66.72 62.911,64.258C62.911,62.288 62.432,60.512 61.476,58.929C60.541,57.367 59.194,56.093 57.582,55.247C55.942,54.375 54.124,53.939 52.127,53.939C50.171,53.939 48.374,54.371 46.735,55.236C45.095,56.102 43.787,57.34 42.809,58.95C41.831,60.561 41.349,62.373 41.364,64.384C41.378,66.354 41.846,68.102 42.767,69.628C43.689,71.155 44.874,72.312 46.323,73.1C47.759,73.885 49.372,74.291 51.008,74.282C51.669,74.282 52.302,74.218 52.908,74.092L44.888,84.411L50.523,84.411ZM52.253,70.651C50.453,70.651 48.979,70.086 47.832,68.953C46.685,67.821 46.105,66.333 46.091,64.49C46.077,62.675 46.654,61.201 47.821,60.069C48.989,58.936 50.466,58.37 52.253,58.37C54.068,58.37 55.531,58.919 56.643,60.016C57.754,61.114 58.31,62.591 58.31,64.448C58.31,66.206 57.744,67.68 56.611,68.868C55.479,70.058 54.026,70.652 52.253,70.652L52.253,70.651ZM69.917,84.833C70.733,84.833 71.433,84.545 72.017,83.968C72.587,83.424 72.905,82.666 72.893,81.878C72.893,81.063 72.601,80.363 72.017,79.778C71.468,79.209 70.707,78.892 69.917,78.903C69.115,78.903 68.419,79.195 67.827,79.779C67.237,80.363 66.942,81.063 66.942,81.879C66.942,82.68 67.237,83.373 67.828,83.957C68.418,84.541 69.115,84.833 69.918,84.833L69.917,84.833ZM84.141,84.411L98.301,58.181L98.301,54.318L77.389,54.318L77.389,58.687L92.837,58.687L78.612,84.41L84.142,84.41L84.141,84.411ZM118.519,84.411L118.519,78.523L122.656,78.523L122.656,74.155L118.519,74.155L118.519,54.318L111.112,54.318L99.526,74.134L99.526,78.524L113.666,78.524L113.666,84.411L118.519,84.411ZM113.666,74.155L104.253,74.155L113.666,57.442L113.666,74.155ZM130.76,67.128C132.589,67.128 134.143,66.481 135.424,65.186C136.704,63.878 137.344,62.309 137.344,60.48C137.344,58.666 136.704,57.111 135.424,55.817C134.144,54.522 132.589,53.875 130.76,53.875C128.945,53.875 127.39,54.522 126.096,55.817C124.801,57.111 124.154,58.666 124.154,60.48C124.154,62.323 124.798,63.892 126.085,65.186C127.373,66.481 128.931,67.128 130.76,67.128ZM133.081,84.432L148.994,54.276L144.773,54.276L128.903,84.432L133.081,84.432ZM130.76,63.772C129.86,63.772 129.085,63.452 128.438,62.812C127.805,62.204 127.453,61.358 127.468,60.48C127.468,59.566 127.791,58.796 128.438,58.17C129.053,57.557 129.891,57.217 130.76,57.23C131.674,57.23 132.448,57.547 133.081,58.18C133.714,58.813 134.031,59.58 134.031,60.48C134.031,61.395 133.718,62.172 133.091,62.812C132.466,63.452 131.688,63.772 130.76,63.772ZM147.369,84.77C149.183,84.77 150.728,84.123 152.001,82.828C153.274,81.534 153.911,79.979 153.911,78.165C153.911,76.335 153.271,74.778 151.991,73.49C150.71,72.203 149.169,71.56 147.369,71.56C145.539,71.56 143.978,72.203 142.683,73.49C141.389,74.778 140.742,76.336 140.742,78.165C140.742,79.993 141.386,81.551 142.672,82.839C143.96,84.126 145.525,84.769 147.369,84.769L147.369,84.77ZM147.369,81.435C146.439,81.435 145.659,81.115 145.026,80.475C144.407,79.868 144.063,79.032 144.076,78.165C144.076,77.236 144.393,76.455 145.026,75.822C145.659,75.189 146.44,74.872 147.369,74.872C148.255,74.872 149.025,75.196 149.679,75.843C150.334,76.49 150.661,77.264 150.661,78.165C150.661,79.065 150.337,79.835 149.69,80.475C149.043,81.115 148.269,81.435 147.369,81.435Z" style="fill:rgb(52,58,64);fill-rule:nonzero;"/>
            </g>
        </g>
    </g>
</svg>
